
<svg xmlns="http://www.w3.org/2000/svg" xmlns:xlink="http://www.w3.org/1999/xlink" xmlns:lucid="lucid" width="1540" height="520"><g transform="translate(-60 -60)" lucid:page-tab-id="0_0"><path d="M0 0h1760v1360H0z" fill="#fff"/><path d="M542.87 80H940v480H542.87z" stroke="#000" stroke-opacity="0" fill="#e8f5e9"/><path d="M561.63 260h160v165h-160z" stroke="#ccc" fill="#fff"/><path d="M80 80h444.25v480H80z" stroke="#000" stroke-opacity="0" fill="#ede7f6"/><path d="M958.62 80H1160v480H958.62z" stroke="#000" stroke-opacity="0" fill="#fff8e1"/><path d="M103.63 266c0-2.76 2.23-5 5-5h110c2.76 0 5 2.24 5 5v150c0 2.76-2.24 5-5 5h-110c-2.77 0-5-2.24-5-5z" stroke="#ccc" fill="#fff"/><g opacity=".8" stroke="#000" stroke-opacity="0"><path d="M166.3 349.02c7.35 0 13.35-6 13.35-13.36 0-7.36-6-13.28-13.36-13.28-7.37 0-13.37 5.92-13.37 13.28 0 7.36 6 13.36 13.36 13.36zm0 6.64c-8.9 0-26.65 4.48-26.65 13.36v6.64h53.28v-6.64c0-8.88-17.76-13.36-26.64-13.36z"/><path d="M126.3 309.02h80v80h-80z" fill-opacity="0"/></g><path d="M253.96 160h248.16v140H253.97z" stroke="#ccc" fill="#fff"/><path d="M338.13 240h80v60h-80z" stroke="#000" stroke-opacity="0" stroke-width="2" fill="#fff" fill-opacity="0"/><use xlink:href="#a" transform="matrix(1,0,0,1,343.125,245) translate(9.858940972222221 32.595486111111114)"/><path d="M253.96 378h248.16v150H253.97z" stroke="#ccc" fill="#fff"/><path d="M337.13 460h80v60h-80z" stroke="#000" stroke-opacity="0" stroke-width="2" fill="#fff" fill-opacity="0"/><use xlink:href="#b" transform="matrix(1,0,0,1,342.125,465) translate(1.6178385416666714 32.595486111111114)"/><g opacity=".8" stroke="#000" stroke-opacity="0"><path d="M408.76 196.64H355.5c-3.7 0-6.65 3.04-6.65 6.72l-.1 33.28c0 3.68 3.06 6.72 6.74 6.72h53.26c3.7 0 6.73-3.04 6.73-6.72v-33.28c0-3.68-3.06-6.72-6.74-6.72zm-30 10h6.73v6.72h-6.74v-6.72zm0 10h6.73v6.72h-6.74v-6.72zm-10-10h6.73v6.72h-6.74v-6.72zm0 10h6.73v6.72h-6.74v-6.72zm-3.27 6.72h-6.74v-6.72h6.73v6.72zm0-10h-6.74v-6.72h6.73v6.72zm30 23.28h-26.74V230h26.73v6.64zm0-13.28h-6.74v-6.72h6.73v6.72zm0-10h-6.74v-6.72h6.73v6.72zm10 10h-6.74v-6.72h6.73v6.72zm0-10h-6.74v-6.72h6.73v6.72z"/><path d="M342.13 180h80v80h-80zm0 0h80v80h-80z" fill-opacity="0"/></g><g opacity=".8" stroke="#000" stroke-opacity="0"><path d="M457.13 230c5.5 0 10-4.48 10-10v-20c0-5.52-4.5-10-10-10-5.52 0-10 4.48-10 10v20c0 5.52 4.48 10 10 10zm17.68-10c0 10-8.48 17.04-17.68 17.04S439.44 230 439.44 220h-5.68c0 11.44 9.13 20.8 20 22.4v10.96h6.73V242.4c10.87-1.6 20-11.04 20-22.4h-5.7z"/><path d="M417.13 180h80v80h-80z" fill-opacity="0"/></g><g opacity=".8" stroke="#000" stroke-opacity="0"><path d="M430.88 430v20h11.7l14.55 16.64v-53.28L442.56 430h-11.7zm39.4 10c0-5.92-3-10.96-7.34-13.44v26.88c4.33-2.48 7.34-7.52 7.34-13.44zm-7.34-29.2v6.8c8.46 2.88 14.63 11.84 14.63 22.4 0 10.56-6.17 19.52-14.63 22.4v6.8c11.7-2.96 20.44-14.96 20.44-29.2 0-14.24-8.75-26.16-20.44-29.2z"/><path d="M422.13 400h70v80h-70z" fill-opacity="0"/></g><path d="M163.63 259.5V230h71.33" stroke="#333" stroke-width="2" fill="none"/><path d="M164.63 260.5h-2v-1.03h2z" fill="#333"/><path d="M250.22 230l-14.26 4.64v-9.28z" stroke="#333" stroke-width="2" fill="#333"/><path d="M163.63 440v13h88.83" stroke="#333" stroke-width="2" fill="none"/><path d="M163.63 424.74l4.63 14.26H159z" stroke="#333" stroke-width="2" fill="#333"/><path d="M253.46 454h-1.03v-2h1.03z" fill="#333"/><path d="M977.9 261H1140v166.5H977.9z" stroke="#ccc" fill="#fff"/><path d="M978.27 359.65h162.1v67.85h-162.1z" stroke="#000" stroke-opacity="0" stroke-width="2" fill="#fff" fill-opacity="0"/><use xlink:href="#c" transform="matrix(1,0,0,1,983.265625,364.6493624772313) translate(59.22026909722222 23.57465277777778)"/><use xlink:href="#d" transform="matrix(1,0,0,1,983.265625,364.6493624772313) translate(41.24609375 49.61631944444444)"/><g opacity=".8" stroke="#000" stroke-opacity="0"><path d="M408.1 413.36h-55.95c-3.86 0-6.97 2.96-6.97 6.64l-.08 40c0 3.68 3.2 6.64 7.05 6.64h55.95c3.86 0 7.05-2.96 7.05-6.64v-40c0-3.68-3.2-6.64-7.05-6.64zM390.62 460h-38.47v-13.36h38.48V460zm0-16.64h-38.47V430h38.48v13.36zM408.1 460h-13.95v-30h13.95v30z"/><path d="M338.13 400h84v80h-84z" fill-opacity="0"/></g><path d="M761.63 260h160v167.5h-160z" stroke="#ccc" fill="#fff"/><g opacity=".8" stroke="#000" stroke-opacity="0"><path d="M801.63 275h80v80h-80z" fill-opacity="0"/><path d="M868.27 318.36H815c-1.85 0-3.37 1.44-3.37 3.28v20c0 1.84 1.52 3.36 3.36 3.36h53.27c1.84 0 3.36-1.52 3.36-3.36v-20c0-1.84-1.52-3.28-3.36-3.28zm-43.28 20c-3.7 0-6.73-3.04-6.73-6.72 0-3.68 3.04-6.64 6.72-6.64 3.6 0 6.63 3.04 6.63 6.64 0 3.68-3.04 6.72-6.64 6.72zM868.26 285H815c-1.85 0-3.37 1.52-3.37 3.36v20c0 1.84 1.52 3.28 3.36 3.28h53.27c1.84 0 3.36-1.44 3.36-3.28v-20c0-1.84-1.52-3.36-3.36-3.36zM825 305c-3.7 0-6.73-3.04-6.73-6.64 0-3.68 3.04-6.72 6.72-6.72 3.6 0 6.63 3.04 6.63 6.72 0 3.6-3.04 6.64-6.64 6.64z"/></g><path d="M761.63 360.37h160v67.13h-160z" stroke="#000" stroke-opacity="0" stroke-width="2" fill="#fff" fill-opacity="0"/><use xlink:href="#e" transform="matrix(1,0,0,1,766.6250000000002,365.3661202185792) translate(27.902560763888893 23.57465277777778)"/><use xlink:href="#f" transform="matrix(1,0,0,1,766.6250000000002,365.3661202185792) translate(39.74609375 49.61631944444444)"/><path d="M960.78 80H1160v65.57H960.78z" stroke="#000" stroke-opacity="0" stroke-width="2" fill="#fff" fill-opacity="0"/><use xlink:href="#g" transform="matrix(1,0,0,1,965.78125,85.00000000000001) translate(41.92925347222222 35.595486111111114)"/><path d="M80 80h444.25v60H80z" stroke="#000" stroke-opacity="0" stroke-width="2" fill="#fff" fill-opacity="0"/><use xlink:href="#h" transform="matrix(1,0,0,1,85,85) translate(172.46961805555554 32.595486111111114)"/><path d="M544.12 91.88h397.13V180H544.12z" stroke="#000" stroke-opacity="0" stroke-width="2" fill="#fff" fill-opacity="0"/><use xlink:href="#i" transform="matrix(1,0,0,1,549.1249999999995,96.875) translate(131.78211805555554 21.053819444444443)"/><use xlink:href="#j" transform="matrix(1,0,0,1,549.1249999999995,96.875) translate(183.45312499999997 21.053819444444443)"/><use xlink:href="#k" transform="matrix(1,0,0,1,549.1249999999995,96.875) translate(183.66471354166666 47.09548611111111)"/><use xlink:href="#l" transform="matrix(1,0,0,1,549.1249999999995,96.875) translate(139.38302951388889 73.13715277777777)"/><path d="M97.7 448.02h154.5v60H97.7z" stroke="#000" stroke-opacity="0" stroke-width="2" fill="#fff" fill-opacity="0"/><use xlink:href="#m" transform="matrix(1,0,0,1,102.6875,453.0208333333333) translate(11.812065972222229 32.595486111111114)"/><use xlink:href="#n" transform="matrix(1,0,0,1,102.6875,453.0208333333333) translate(35.64019097222223 32.595486111111114)"/><path d="M101.63 163.96h146.62v62.08H101.62z" stroke="#000" stroke-opacity="0" stroke-width="2" fill="#fff" fill-opacity="0"/><use xlink:href="#o" transform="matrix(1,0,0,1,106.625,168.95833333333334) translate(31.44487847222222 34.095486111111114)"/><use xlink:href="#p" transform="matrix(1,0,0,1,106.625,168.95833333333334) translate(55.273003472222214 34.095486111111114)"/><g opacity=".8" stroke="#000" stroke-opacity="0"><path d="M601.63 275h80v80h-80v-80z" fill-opacity="0"/><path d="M633 330.36L617.6 315 633 299.64l-4.74-4.64-20 20 20 20 4.73-4.64zm17.26 0L665.63 315l-15.37-15.36L655 295l20 20-20 20-4.74-4.64z"/></g><path d="M561.63 357.87h160V425h-160z" stroke="#000" stroke-opacity="0" stroke-width="2" fill="#fff" fill-opacity="0"/><use xlink:href="#q" transform="matrix(1,0,0,1,566.625,362.8661202185792) translate(46.728515625 23.57465277777778)"/><use xlink:href="#r" transform="matrix(1,0,0,1,566.625,362.8661202185792) translate(20.442708333333343 49.61631944444444)"/><path d="M1103.23 312.96l-18.45-31.84c-1.44-2.48-4.05-4-7.02-4.08h-37c-2.87.08-5.48 1.6-6.92 4.08l-18.45 31.76c-1.45 2.4-1.45 5.44 0 7.92l18.44 32c1.44 2.56 4.05 4.16 6.93 4.24h37c2.96-.08 5.57-1.68 7-4.24l18.46-31.76c1.44-2.56 1.44-5.6 0-8.08z" stroke="#000" stroke-opacity="0" fill="#4285f4"/><path d="M1079.3 302.88l-40.06.08 14.67 14.56-14.66 9.36 12.96 12.8-1.35 2.56 14.94 14.8h11.96c2.97-.16 5.58-1.76 7.02-4.24l16.38-28.24-21.87-21.68z" stroke="#000" stroke-opacity="0" fill-opacity=".07"/><path d="M1059.67 313.84l19.62-10.96-17.83-10.16c-1.35-.72-2.97-.72-4.32 0l-17.9 10.24 20.42 10.88z" stroke="#000" stroke-opacity="0" fill="#fff"/><path d="M1059.67 318.4l-21.42-11.36v17.36c-.1 1.28.63 2.4 1.7 3.04l9.73 5.6c.54.32.8.88.8 1.52v6.96c0 .4.28.72.55.88.36.24.72.24 1.08 0l26.47-14.96c1.17-.56 1.8-1.76 1.8-3.04v-17.52l-20.7 11.52z" stroke="#000" stroke-opacity="0" fill="#fff"/><path d="M560.13 364.34h-28.25V453h-10.75" stroke="#333" stroke-width="2" fill="none"/><path d="M561.13 365.34h-1.03v-2h1.02z" fill="#333"/><path d="M505.86 453l14.27-4.64v9.28z" stroke="#333" stroke-width="2" fill="#333"/><path d="M923.13 322.7h35.77" stroke="#333" stroke-width="2" fill="none"/><path d="M923.15 323.7h-1.02v-2h1.02z" fill="#333"/><path d="M974.17 322.7l-14.27 4.63v-9.27z" stroke="#333" stroke-width="2" fill="#333"/><path d="M940.63 363.53h35.78" stroke="#333" stroke-width="2" fill="none"/><path d="M925.36 363.53l14.27-4.63v9.27z" stroke="#333" stroke-width="2" fill="#333"/><path d="M977.4 364.53h-1.02v-2h1.03z" fill="#333"/><path d="M723.13 324.1h18.5v-1.4h1" stroke="#333" stroke-width="2" fill="none"/><path d="M723.15 325.1h-1.02v-2h1.02z" fill="#333"/><path d="M757.9 322.7l-14.28 4.63v-9.27z" stroke="#333" stroke-width="2" fill="#333"/><path d="M740.63 366.86h1v-.78h18.5" stroke="#333" stroke-width="2" fill="none"/><path d="M725.36 366.86l14.27-4.64v9.27z" stroke="#333" stroke-width="2" fill="#333"/><path d="M761.13 367.08h-1.03v-2h1.02z" fill="#333"/><path d="M503.63 230h28.25v97.9h10.74" stroke="#333" stroke-width="2" fill="none"/><path d="M503.65 231h-1.02v-2h1.02z" fill="#333"/><path d="M557.9 327.9l-14.28 4.62v-9.27z" stroke="#333" stroke-width="2" fill="#333"/><path d="M541.63 197.92H940V260H541.62z" stroke="#000" stroke-opacity="0" stroke-width="2" fill="#fff" fill-opacity="0"/><use xlink:href="#s" transform="matrix(1,0,0,1,546.625,202.91666666666669) translate(114.48697916666667 34.095486111111114)"/><use xlink:href="#t" transform="matrix(1,0,0,1,546.625,202.91666666666669) translate(138.31510416666666 34.095486111111114)"/><use xlink:href="#u" transform="matrix(1,0,0,1,546.625,202.91666666666669) translate(224.88194444444446 34.095486111111114)"/><path d="M956.97 445.94H1160v62.08H956.97z" stroke="#000" stroke-opacity="0" stroke-width="2" fill="#fff" fill-opacity="0"/><use xlink:href="#v" transform="matrix(1,0,0,1,961.9687499999999,450.9375) translate(22.09765625 21.07465277777778)"/><use xlink:href="#w" transform="matrix(1,0,0,1,961.9687499999999,450.9375) translate(45.92578125 21.07465277777778)"/><use xlink:href="#x" transform="matrix(1,0,0,1,961.9687499999999,450.9375) translate(115.69574652777777 21.07465277777778)"/><use xlink:href="#y" transform="matrix(1,0,0,1,961.9687499999999,450.9375) translate(51.41080729166667 47.11631944444444)"/><path d="M940 175.94h220v88.12H940z" stroke="#000" stroke-opacity="0" stroke-width="2" fill="#fff" fill-opacity="0"/><use xlink:href="#z" transform="matrix(1,0,0,1,944.9999999999999,180.9375) translate(30.09765625 34.07465277777778)"/><use xlink:href="#w" transform="matrix(1,0,0,1,944.9999999999999,180.9375) translate(53.92578125 34.07465277777778)"/><use xlink:href="#x" transform="matrix(1,0,0,1,944.9999999999999,180.9375) translate(123.69574652777777 34.07465277777778)"/><use xlink:href="#A" transform="matrix(1,0,0,1,944.9999999999999,180.9375) translate(67.77126736111111 60.11631944444444)"/><path d="M542.87 427.5h398.38v62.08H542.87z" stroke="#000" stroke-opacity="0" stroke-width="2" fill="#fff" fill-opacity="0"/><use xlink:href="#B" transform="matrix(1,0,0,1,547.8749999999998,432.5) translate(93.71332465277779 34.095486111111114)"/><use xlink:href="#t" transform="matrix(1,0,0,1,547.8749999999998,432.5) translate(117.54144965277779 34.095486111111114)"/><use xlink:href="#C" transform="matrix(1,0,0,1,547.8749999999998,432.5) translate(204.10828993055554 34.095486111111114)"/><g opacity=".8" stroke="#000" stroke-opacity="0"><path d="M259.13 400h80v80h-80z" fill-opacity="0"/><path d="M325.85 451.28c-4.1 0-8.1-.64-11.76-1.92-1.22-.32-2.5-.08-3.38.88l-5.28 6.56c-9.44-4.56-18.24-13.04-22.95-22.8l6.47-5.52c.95-.96 1.2-2.24.8-3.44-1.2-3.68-1.84-7.6-1.84-11.76 0-1.76-1.52-3.28-3.3-3.28h-11.5c-1.84 0-4 .8-4 3.28 0 30.96 25.75 56.72 56.72 56.72 2.3 0 3.27-2.08 3.27-3.92v-11.52c0-1.76-1.5-3.28-3.27-3.28z"/></g><g opacity=".8" stroke="#000" stroke-opacity="0"><path d="M262.13 180h80v80h-80z" fill-opacity="0"/><path d="M328.85 231.28c-4.1 0-8.1-.64-11.76-1.92-1.22-.32-2.5-.08-3.38.88l-5.28 6.56c-9.44-4.56-18.24-13.04-22.95-22.8l6.47-5.52c.95-.96 1.2-2.24.8-3.44-1.2-3.68-1.84-7.6-1.84-11.76 0-1.76-1.52-3.28-3.3-3.28h-11.5c-1.84 0-4 .8-4 3.28 0 30.96 25.75 56.72 56.72 56.72 2.3 0 3.27-2.08 3.27-3.92v-11.52c0-1.76-1.5-3.28-3.27-3.28z"/></g><path d="M1178.63 80H1580v480h-401.38z" stroke="#000" stroke-opacity="0" fill="#e3f2fd"/><path d="M1330 446.5v9.5h51.25" stroke="#333" stroke-width="2" fill="none"/><path d="M1330 431.24l4.64 14.26h-9.28zM1396.5 456l-14.25 4.64v-9.28z" stroke="#333" stroke-width="2" fill="#333"/><path d="M1200.25 261h160v166.5h-160z" stroke="#ccc" fill="#fff"/><g opacity=".8" stroke="#000" stroke-opacity="0"><path d="M1240.25 277.04h80v80h-80z" fill-opacity="0"/><path d="M1306.9 320.4h-53.3c-1.83 0-3.35 1.44-3.35 3.28v20c0 1.84 1.52 3.36 3.36 3.36h53.3c1.83 0 3.35-1.52 3.35-3.36v-20c0-1.84-1.52-3.28-3.36-3.28zm-43.3 20c-3.67 0-6.7-3.04-6.7-6.72 0-3.68 3.03-6.64 6.7-6.64 3.6 0 6.65 3.04 6.65 6.64 0 3.68-3.04 6.72-6.64 6.72zm43.3-53.36h-53.3c-1.83 0-3.35 1.52-3.35 3.36v20c0 1.84 1.52 3.28 3.36 3.28h53.3c1.83 0 3.35-1.44 3.35-3.28v-20c0-1.84-1.52-3.36-3.36-3.36zm-43.3 20c-3.67 0-6.7-3.04-6.7-6.64 0-3.68 3.03-6.72 6.7-6.72 3.6 0 6.65 3.04 6.65 6.72 0 3.6-3.04 6.64-6.64 6.64z"/></g><path d="M1200.25 365.42h160V425h-160z" stroke="#000" stroke-opacity="0" stroke-width="2" fill="#fff" fill-opacity="0"/><use xlink:href="#D" transform="matrix(1,0,0,1,1205.25,370.4166666666667) translate(28.76519097222222 20.616319444444443)"/><use xlink:href="#f" transform="matrix(1,0,0,1,1205.25,370.4166666666667) translate(39.74609375 46.65798611111111)"/><path d="M1178.63 80H1580v83.96h-401.38z" stroke="#000" stroke-opacity="0" stroke-width="2" fill="#fff" fill-opacity="0"/><use xlink:href="#E" transform="matrix(1,0,0,1,1183.625,85) translate(133.78211805555554 31.57465277777778)"/><use xlink:href="#F" transform="matrix(1,0,0,1,1183.625,85) translate(185.45312499999997 31.57465277777778)"/><use xlink:href="#G" transform="matrix(1,0,0,1,1183.625,85) translate(147.53537326388889 57.61631944444444)"/><path d="M1398.92 165h160v175h-160zM1400.25 361.04h160v175h-160z" stroke="#ccc" fill="#fff"/><g opacity=".8" stroke="#000" stroke-opacity="0"><path d="M1438.92 185h80v80h-80z" fill-opacity="0"/><path d="M1503.4 218.44c-2.24-11.44-12.32-20.08-24.48-20.08-9.6 0-18 5.44-22.16 13.44-10.08 1.04-17.84 9.6-17.84 19.84 0 11.04 8.96 20 20 20h43.36c9.2 0 16.64-7.44 16.64-16.64 0-8.8-6.8-15.92-15.52-16.56z"/></g><g opacity=".8" stroke="#000" stroke-opacity="0"><path d="M1440.25 381.04h80v80h-80z" fill-opacity="0"/><path d="M1446.9 447.68h66.7V434.4h-66.7v13.28zm6.7-10h6.65v6.72h-6.64v-6.72zm-6.7-43.28v13.28h66.7V394.4h-66.7zm13.35 10h-6.64v-6.72h6.65v6.72zm-13.36 23.28h66.7V414.4h-66.7v13.28zm6.7-10h6.65v6.72h-6.64v-6.72z"/></g><path d="M1438.92 263.96h80v62.08h-80z" stroke="#000" stroke-opacity="0" stroke-width="2" fill="#fff" fill-opacity="0"/><g><use xlink:href="#H" transform="matrix(1,0,0,1,1443.916666666667,268.9583333333333) translate(-4.968532986111107 21.07465277777778)"/><use xlink:href="#I" transform="matrix(1,0,0,1,1443.916666666667,268.9583333333333) translate(11.991102430555557 47.11631944444444)"/></g><path d="M1440.25 461.04h80v60h-80z" stroke="#000" stroke-opacity="0" stroke-width="2" fill="#fff" fill-opacity="0"/><g><use xlink:href="#J" transform="matrix(1,0,0,1,1445.25,466.04166666666663) translate(-11.896701388888886 32.595486111111114)"/></g><path d="M1328 242v-14h51.9" stroke="#333" stroke-width="2" fill="none"/><path d="M1328 257.26l-4.64-14.26h9.28zM1395.18 228l-14.27 4.64v-9.28z" stroke="#333" stroke-width="2" fill="#333"/><path d="M1158.86 359.74h39.9" stroke="#333" stroke-width="2" fill="none"/><path d="M1143.6 359.74l14.26-4.63v9.28z" stroke="#333" stroke-width="2" fill="#333"/><path d="M1199.75 360.74h-1.03v-2h1.03z" fill="#333"/><path d="M1141.5 319h39.75" stroke="#333" stroke-width="2" fill="none"/><path d="M1141.53 320h-1.03v-2h1.03z" fill="#333"/><path d="M1196.5 319l-14.25 4.64v-9.28z" stroke="#333" stroke-width="2" fill="#333"/><path d="M1160 154.44h180v88.12h-180z" stroke="#000" stroke-opacity="0" stroke-width="2" fill="#fff" fill-opacity="0"/><g><use xlink:href="#K" transform="matrix(1,0,0,1,1165,159.4375) translate(26.85112847222222 34.07465277777778)"/><use xlink:href="#L" transform="matrix(1,0,0,1,1165,159.4375) translate(50.679253472222214 34.07465277777778)"/><use xlink:href="#A" transform="matrix(1,0,0,1,1165,159.4375) translate(47.771267361111114 60.11631944444444)"/></g><path d="M1178.62 445.94h141.63v88.12h-141.63z" stroke="#000" stroke-opacity="0" stroke-width="2" fill="#fff" fill-opacity="0"/><g><use xlink:href="#M" transform="matrix(1,0,0,1,1183.6249999999995,450.9375) translate(7.851128472222221 34.07465277777778)"/><use xlink:href="#N" transform="matrix(1,0,0,1,1183.6249999999995,450.9375) translate(31.679253472222218 34.07465277777778)"/><use xlink:href="#C" transform="matrix(1,0,0,1,1183.6249999999995,450.9375) translate(20.41080729166667 60.11631944444444)"/></g><defs><path fill="#333" d="M375 0H183v-1456h192V0" id="O"/><path fill="#333" d="M589-945c-131 0-219 81-264 174V0H140v-1082h175l6 136c83-104 191-156 324-156 229 0 346 129 346 387V0H806v-716c-2-153-65-229-217-229" id="P"/><path fill="#333" d="M632-1102c291 0 422 251 422 573 0 297-141 548-419 549-131 0-235-42-310-125v521H140v-1498h169l9 120c75-93 180-140 314-140zm-53 971c207 0 290-180 290-419 0-218-92-395-292-395-112 0-196 50-252 149v517c55 99 140 148 254 148" id="Q"/><path fill="#333" d="M491 20c-241-1-355-148-355-398v-704h185v699c0 164 67 246 200 246 141 0 235-53 282-158v-787h185V0H812l-4-107C736-22 630 20 491 20" id="R"/><path fill="#333" d="M456 20C285 20 205-92 206-268v-671H9v-143h197v-262h185v262h202v143H391v671c-9 125 92 149 207 118V0c-49 13-96 20-142 20" id="S"/><g id="a"><use transform="matrix(0.010850694444444444,0,0,0.010850694444444444,0,0)" xlink:href="#O"/><use transform="matrix(0.010850694444444444,0,0,0.010850694444444444,6.043836805555555,0)" xlink:href="#P"/><use transform="matrix(0.010850694444444444,0,0,0.010850694444444444,18.30512152777778,0)" xlink:href="#Q"/><use transform="matrix(0.010850694444444444,0,0,0.010850694444444444,30.772569444444443,0)" xlink:href="#R"/><use transform="matrix(0.010850694444444444,0,0,0.010850694444444444,43.02300347222222,0)" xlink:href="#S"/></g><path fill="#333" d="M703-1476c426 0 599 333 586 795-11 408-187 701-584 701-422 0-587-333-587-793 0-282 106-507 280-617 89-56 190-86 305-86zm2 1333c312 0 393-279 393-632 0-308-116-536-395-536-269 0-394 232-394 523v107c-4 298 123 538 396 538" id="T"/><g id="b"><use transform="matrix(0.010850694444444444,0,0,0.010850694444444444,0,0)" xlink:href="#T"/><use transform="matrix(0.010850694444444444,0,0,0.010850694444444444,15.277777777777777,0)" xlink:href="#R"/><use transform="matrix(0.010850694444444444,0,0,0.010850694444444444,27.528211805555554,0)" xlink:href="#S"/><use transform="matrix(0.010850694444444444,0,0,0.010850694444444444,34.787326388888886,0)" xlink:href="#Q"/><use transform="matrix(0.010850694444444444,0,0,0.010850694444444444,47.25477430555556,0)" xlink:href="#R"/><use transform="matrix(0.010850694444444444,0,0,0.010850694444444444,59.50520833333333,0)" xlink:href="#S"/></g><path fill="#333" d="M973-380H363L226 0H28l556-1456h168L1309 0h-197zM421-538h495l-248-681" id="U"/><path fill="#333" d="M1216-1011c-1 297-202 441-512 441H361V0H169v-1456h537c297-6 510 164 510 445zm-192 2c1-178-126-288-307-289H361v571h345c196 1 318-92 318-282" id="V"/><g id="c"><use transform="matrix(0.010850694444444444,0,0,0.010850694444444444,0,0)" xlink:href="#U"/><use transform="matrix(0.010850694444444444,0,0,0.010850694444444444,14.496527777777777,0)" xlink:href="#V"/><use transform="matrix(0.010850694444444444,0,0,0.010850694444444444,28.515625,0)" xlink:href="#O"/></g><path fill="#333" d="M538-131c121 0 232-49 232-156 0-50-20-88-56-117-73-60-334-92-420-143-92-55-162-110-162-238 0-190 192-317 400-317 223 0 414 129 413 338H759c0-108-110-186-227-186-119 0-215 53-215 159 0 45 18 78 53 101 76 52 331 90 416 139 98 57 169 115 169 251C955-92 760 20 538 20c-176 0-314-68-386-174-38-55-57-115-57-179h185c6 129 116 202 258 202" id="W"/><path fill="#333" d="M599-131c141 0 220-65 285-146l113 88C906-50 770 20 589 20 281 21 93-214 93-545c0-223 93-397 233-485 74-48 154-72 240-72 300 2 449 218 445 537v77H278c0 197 129 357 321 357zm227-509c-3-180-88-310-260-310-170 0-264 140-282 310h542" id="X"/><path fill="#333" d="M663-916c-163-27-288 18-338 148V0H140v-1082h180l3 125c61-97 147-145 258-145 36 0 63 5 82 14v172" id="Y"/><path fill="#333" d="M497-251l268-831h189L566 0H425L33-1082h189" id="Z"/><path fill="#333" d="M341 0H156v-1082h185V0zm-91-1264c-68 0-108-42-109-105 0-62 41-107 109-107s110 44 110 107-42 105-110 105" id="aa"/><path fill="#333" d="M277-555c0 244 77 420 297 424 127 2 249-93 255-210h175C980-127 805 20 574 20 258 20 81-222 92-562c11-319 164-533 481-540 237-5 426 165 431 392H829c-7-133-115-242-256-240-209 4-296 166-296 395" id="ab"/><g id="d"><use transform="matrix(0.010850694444444444,0,0,0.010850694444444444,0,0)" xlink:href="#W"/><use transform="matrix(0.010850694444444444,0,0,0.010850694444444444,11.458333333333332,0)" xlink:href="#X"/><use transform="matrix(0.010850694444444444,0,0,0.010850694444444444,23.231336805555554,0)" xlink:href="#Y"/><use transform="matrix(0.010850694444444444,0,0,0.010850694444444444,30.946180555555554,0)" xlink:href="#Z"/><use transform="matrix(0.010850694444444444,0,0,0.010850694444444444,41.71006944444444,0)" xlink:href="#aa"/><use transform="matrix(0.010850694444444444,0,0,0.010850694444444444,47.10286458333333,0)" xlink:href="#ab"/><use transform="matrix(0.010850694444444444,0,0,0.010850694444444444,58.73480902777778,0)" xlink:href="#X"/></g><path fill="#333" d="M972-643H361V0H169v-1456h902v158H361v498h611v157" id="ac"/><path fill="#333" d="M584 20C278 26 81-227 91-551c10-320 175-545 491-551 308-5 503 247 494 573-9 322-175 543-492 549zm-2-970c-208 0-305 185-305 421 0 216 106 398 307 398 211 0 307-186 307-420 0-214-109-399-309-399" id="ad"/><path fill="#333" d="M525-543H37v-151h488v151" id="ae"/><path fill="#333" d="M520 20C244 20 95-247 95-550c0-298 151-550 427-552 127 0 227 43 301 130v-564h185V0H838l-9-116C755-25 652 20 520 20zm48-965c-210 0-288 177-288 416 0 218 87 392 286 392 117 0 203-53 257-158v-497c-55-102-140-153-255-153" id="af"/><g id="e"><use transform="matrix(0.010850694444444444,0,0,0.010850694444444444,0,0)" xlink:href="#ac"/><use transform="matrix(0.010850694444444444,0,0,0.010850694444444444,12.000868055555555,0)" xlink:href="#Y"/><use transform="matrix(0.010850694444444444,0,0,0.010850694444444444,19.303385416666664,0)" xlink:href="#ad"/><use transform="matrix(0.010850694444444444,0,0,0.010850694444444444,31.976996527777775,0)" xlink:href="#P"/><use transform="matrix(0.010850694444444444,0,0,0.010850694444444444,44.23828125,0)" xlink:href="#S"/><use transform="matrix(0.010850694444444444,0,0,0.010850694444444444,51.49739583333333,0)" xlink:href="#ae"/><use transform="matrix(0.010850694444444444,0,0,0.010850694444444444,57.62803819444444,0)" xlink:href="#X"/><use transform="matrix(0.010850694444444444,0,0,0.010850694444444444,69.40104166666666,0)" xlink:href="#P"/><use transform="matrix(0.010850694444444444,0,0,0.010850694444444444,81.66232638888889,0)" xlink:href="#af"/></g><g id="f"><use transform="matrix(0.010850694444444444,0,0,0.010850694444444444,0,0)" xlink:href="#W"/><use transform="matrix(0.010850694444444444,0,0,0.010850694444444444,11.458333333333332,0)" xlink:href="#X"/><use transform="matrix(0.010850694444444444,0,0,0.010850694444444444,23.231336805555554,0)" xlink:href="#Y"/><use transform="matrix(0.010850694444444444,0,0,0.010850694444444444,30.946180555555554,0)" xlink:href="#Z"/><use transform="matrix(0.010850694444444444,0,0,0.010850694444444444,41.71006944444444,0)" xlink:href="#aa"/><use transform="matrix(0.010850694444444444,0,0,0.010850694444444444,47.10286458333333,0)" xlink:href="#ab"/><use transform="matrix(0.010850694444444444,0,0,0.010850694444444444,58.73480902777778,0)" xlink:href="#X"/></g><path fill="#333" d="M130 0v-1456h448c435 14 673 299 665 762-5 285-130 500-319 606C822-31 708 0 581 0H130zm809-685c9-311-79-526-361-528H430v972h145c252-2 356-181 364-444" id="ag"/><path fill="#333" d="M416 0H126v-1082h290V0zM271-1212c-92 0-162-61-162-150s68-149 162-149c93 0 162 60 162 149s-70 150-162 150" id="ah"/><path fill="#333" d="M552-1102c254-4 435 134 435 383v469c1 103 15 180 43 233V0H738c-13-26-23-58-29-97C639-19 548 20 436 20 238 20 64-113 68-304c5-258 212-357 496-357h133c11-137-29-227-160-227-90 0-156 45-156 131H92c15-231 213-342 460-345zM357-325c0 76 61 124 142 124 88 0 168-45 198-105v-186H589c-152 2-232 51-232 167" id="ai"/><path fill="#333" d="M416 0H126v-1536h290V0" id="aj"/><path fill="#333" d="M579 20C257 20 58-214 66-551c8-331 182-551 511-551 324 0 514 231 514 572 0 319-198 550-512 550zm-2-888c-169 0-222 141-222 338 0 181 61 317 224 317 170 0 223-137 223-338 0-178-64-317-225-317" id="ak"/><path fill="#333" d="M505 20C221 18 69-239 69-549c0-302 153-553 438-553 119 0 211 41 277 122l12-102h262V-36c-8 305-208 458-520 462-160 1-335-76-403-170L263 80c72 81 159 121 262 121 172 1 260-107 243-294C701-18 614 20 505 20zm76-887c-165 0-223 147-223 339 0 172 66 314 221 314 88 0 151-33 189-99v-455c-39-66-101-99-187-99" id="al"/><path fill="#333" d="M190-1174c-11-296 244-440 544-363l-3 224c-24-6-53-9-88-9-109 0-163 51-163 153v87h215v212H480V0H190v-870H29v-212h161v-92" id="am"/><path fill="#333" d="M1052-393l142-689h279L1197 0H955L750-681 545 0H304L28-1082h279l141 688 198-688h209" id="an"/><g id="g"><use transform="matrix(0.010850694444444444,0,0,0.010850694444444444,0,0)" xlink:href="#ag"/><use transform="matrix(0.010850694444444444,0,0,0.010850694444444444,14.442274305555555,0)" xlink:href="#ah"/><use transform="matrix(0.010850694444444444,0,0,0.010850694444444444,20.33420138888889,0)" xlink:href="#ai"/><use transform="matrix(0.010850694444444444,0,0,0.010850694444444444,32.248263888888886,0)" xlink:href="#aj"/><use transform="matrix(0.010850694444444444,0,0,0.010850694444444444,38.14019097222222,0)" xlink:href="#ak"/><use transform="matrix(0.010850694444444444,0,0,0.010850694444444444,50.705295138888886,0)" xlink:href="#al"/><use transform="matrix(0.010850694444444444,0,0,0.010850694444444444,63.38975694444444,0)" xlink:href="#am"/><use transform="matrix(0.010850694444444444,0,0,0.010850694444444444,71.35416666666667,0)" xlink:href="#aj"/><use transform="matrix(0.010850694444444444,0,0,0.010850694444444444,77.24609375,0)" xlink:href="#ak"/><use transform="matrix(0.010850694444444444,0,0,0.010850694444444444,89.81119791666666,0)" xlink:href="#an"/></g><path fill="#333" d="M1006-631H430v390h676V0H130v-1456h974v243H430v347h576v235" id="ao"/><path fill="#333" d="M750-692c-1-124-48-174-173-175-81 0-142 35-183 104V0H105v-1082h272l9 125c77-97 181-145 311-145 244 0 342 151 342 403V0H750v-692" id="ap"/><path fill="#333" d="M488 20C204 20 66-234 66-549c0-305 140-551 424-553 105 0 192 39 261 118v-552h290V0H780l-14-115C694-25 601 20 488 20zM355-528c0 176 51 314 207 314 89 0 152-38 189-113v-427c-36-75-98-113-187-113-139 0-209 113-209 339" id="aq"/><path fill="#333" d="M673-507H110v-233h563v233" id="ar"/><path fill="#333" d="M463 20c-241-1-359-147-359-393v-709h289v699c0 113 51 169 154 169 98 0 165-34 202-102v-766h290V0H767l-8-110C688-23 589 20 463 20" id="as"/><path fill="#333" d="M529-185c94 0 168-33 168-114 0-35-18-63-53-83s-91-39-168-55C219-491 90-600 90-765c0-208 203-337 432-337 246 0 451 124 453 349H686c-2-91-62-143-165-143-86 0-151 41-153 117 0 32 16 57 46 77 63 43 257 69 335 100 151 60 229 153 229 291C978-13 554 93 282-28 162-81 60-190 56-344h274c5 106 86 159 199 159" id="at"/><path fill="#333" d="M1031-175C952-60 797 20 609 20 287 20 60-206 72-543c12-330 180-559 505-559 309 0 482 214 477 537v118H365c15 134 115 234 263 234 111 0 198-40 261-121zM770-644c5-139-62-226-194-224-130 1-191 97-208 224h402" id="au"/><path fill="#333" d="M719-811c-143-24-279 1-319 103V0H111v-1082h273l8 129c74-124 180-175 331-136" id="av"/><g id="h"><use transform="matrix(0.010850694444444444,0,0,0.010850694444444444,0,0)" xlink:href="#ao"/><use transform="matrix(0.010850694444444444,0,0,0.010850694444444444,12.5,0)" xlink:href="#ap"/><use transform="matrix(0.010850694444444444,0,0,0.010850694444444444,24.94574652777778,0)" xlink:href="#aq"/><use transform="matrix(0.010850694444444444,0,0,0.010850694444444444,37.46744791666667,0)" xlink:href="#ar"/><use transform="matrix(0.010850694444444444,0,0,0.010850694444444444,46.08289930555556,0)" xlink:href="#as"/><use transform="matrix(0.010850694444444444,0,0,0.010850694444444444,58.517795138888886,0)" xlink:href="#at"/><use transform="matrix(0.010850694444444444,0,0,0.010850694444444444,69.94357638888889,0)" xlink:href="#au"/><use transform="matrix(0.010850694444444444,0,0,0.010850694444444444,81.95529513888889,0)" xlink:href="#av"/></g><path fill="#333" d="M632-800l303-656h328L785-528V0H480v-528L2-1456h329" id="aw"/><g id="i"><use transform="matrix(0.010850694444444444,0,0,0.010850694444444444,0,0)" xlink:href="#aw"/><use transform="matrix(0.010850694444444444,0,0,0.010850694444444444,13.031684027777777,0)" xlink:href="#ak"/><use transform="matrix(0.010850694444444444,0,0,0.010850694444444444,25.596788194444443,0)" xlink:href="#as"/><use transform="matrix(0.010850694444444444,0,0,0.010850694444444444,38.03168402777777,0)" xlink:href="#av"/></g><path fill="#333" d="M515-409l200-673h310L590 168c-66 202-236 321-472 250V199c127 7 198-15 230-107l34-89L3-1082h311" id="ax"/><path fill="#333" d="M457-330c2 83 25 111 111 112 32 0 60-2 85-7V-6c-57 17-115 26-175 26-203 0-310-102-310-307v-583H10v-212h158v-266h289v266h185v212H457v540" id="ay"/><path fill="#333" d="M741-689c-2-124-40-177-163-178-82 0-141 34-178 102V0H111v-1082h271l9 121c77-94 180-141 311-141 139 0 235 55 287 165 76-110 184-165 325-165 249 0 348 151 348 411V0h-290v-690c-2-123-39-176-163-177-87 0-147 41-180 124l1 743H741v-689" id="az"/><g id="j"><use transform="matrix(0.010850694444444444,0,0,0.010850694444444444,0,0)" xlink:href="#at"/><use transform="matrix(0.010850694444444444,0,0,0.010850694444444444,11.42578125,0)" xlink:href="#ax"/><use transform="matrix(0.010850694444444444,0,0,0.010850694444444444,22.58029513888889,0)" xlink:href="#at"/><use transform="matrix(0.010850694444444444,0,0,0.010850694444444444,34.006076388888886,0)" xlink:href="#ay"/><use transform="matrix(0.010850694444444444,0,0,0.010850694444444444,41.51475694444444,0)" xlink:href="#au"/><use transform="matrix(0.010850694444444444,0,0,0.010850694444444444,53.52647569444444,0)" xlink:href="#az"/></g><g id="k"><use transform="matrix(0.010850694444444444,0,0,0.010850694444444444,0,0)" xlink:href="#ak"/><use transform="matrix(0.010850694444444444,0,0,0.010850694444444444,12.565104166666666,0)" xlink:href="#av"/></g><path fill="#333" d="M449 0H149v-1456h300V0" id="aA"/><g id="l"><use transform="matrix(0.010850694444444444,0,0,0.010850694444444444,0,0)" xlink:href="#aA"/><use transform="matrix(0.010850694444444444,0,0,0.010850694444444444,6.477864583333333,0)" xlink:href="#ap"/><use transform="matrix(0.010850694444444444,0,0,0.010850694444444444,18.92361111111111,0)" xlink:href="#ay"/><use transform="matrix(0.010850694444444444,0,0,0.010850694444444444,26.432291666666664,0)" xlink:href="#au"/><use transform="matrix(0.010850694444444444,0,0,0.010850694444444444,38.444010416666664,0)" xlink:href="#al"/><use transform="matrix(0.010850694444444444,0,0,0.010850694444444444,51.12847222222222,0)" xlink:href="#av"/><use transform="matrix(0.010850694444444444,0,0,0.010850694444444444,58.908420138888886,0)" xlink:href="#ai"/><use transform="matrix(0.010850694444444444,0,0,0.010850694444444444,70.82248263888889,0)" xlink:href="#ay"/><use transform="matrix(0.010850694444444444,0,0,0.010850694444444444,78.33116319444444,0)" xlink:href="#ah"/><use transform="matrix(0.010850694444444444,0,0,0.010850694444444444,84.22309027777777,0)" xlink:href="#ak"/><use transform="matrix(0.010850694444444444,0,0,0.010850694444444444,96.78819444444444,0)" xlink:href="#ap"/></g><path fill="#333" d="M575-1476c247 0 432 154 429 400-2 161-97 271-213 327 135 56 245 179 247 356 3 257-200 413-463 413-265 0-466-156-463-413 2-176 108-302 243-357-115-56-207-166-209-326-4-246 181-400 429-400zm0 1345c168 0 278-101 278-266 0-161-118-276-280-276-163 0-276 113-276 276 0 167 108 266 278 266zm244-942c0-143-104-251-244-251-146 0-244 102-244 251 0 145 98 248 244 248s244-103 244-248" id="aB"/><path fill="#333" d="M258 11c-71 0-114-43-114-108 0-67 42-112 114-112s116 45 116 112c-1 65-45 108-116 108" id="aC"/><g id="m"><use transform="matrix(0.010850694444444444,0,0,0.010850694444444444,0,0)" xlink:href="#aB"/><use transform="matrix(0.010850694444444444,0,0,0.010850694444444444,12.47829861111111,0)" xlink:href="#aC"/></g><path fill="#333" d="M1161-1018c0 201-122 330-278 388l342 618V0h-206L703-589H361V0H168v-1456h482c310-2 511 139 511 438zm-193 0c0-187-120-280-313-280H361v552h295c179 3 313-101 312-272" id="aD"/><g id="n"><use transform="matrix(0.010850694444444444,0,0,0.010850694444444444,0,0)" xlink:href="#aD"/><use transform="matrix(0.010850694444444444,0,0,0.010850694444444444,13.682725694444445,0)" xlink:href="#X"/><use transform="matrix(0.010850694444444444,0,0,0.010850694444444444,25.455729166666664,0)" xlink:href="#W"/><use transform="matrix(0.010850694444444444,0,0,0.010850694444444444,36.9140625,0)" xlink:href="#Q"/><use transform="matrix(0.010850694444444444,0,0,0.010850694444444444,49.381510416666664,0)" xlink:href="#ad"/><use transform="matrix(0.010850694444444444,0,0,0.010850694444444444,62.05512152777778,0)" xlink:href="#P"/><use transform="matrix(0.010850694444444444,0,0,0.010850694444444444,74.31640625,0)" xlink:href="#W"/><use transform="matrix(0.010850694444444444,0,0,0.010850694444444444,85.77473958333333,0)" xlink:href="#X"/></g><path fill="#333" d="M729 0H543v-1233l-373 137v-168l530-199h29V0" id="aE"/><g id="o"><use transform="matrix(0.010850694444444444,0,0,0.010850694444444444,0,0)" xlink:href="#aE"/><use transform="matrix(0.010850694444444444,0,0,0.010850694444444444,12.47829861111111,0)" xlink:href="#aC"/></g><g id="p"><use transform="matrix(0.010850694444444444,0,0,0.010850694444444444,0,0)" xlink:href="#O"/><use transform="matrix(0.010850694444444444,0,0,0.010850694444444444,6.043836805555555,0)" xlink:href="#P"/><use transform="matrix(0.010850694444444444,0,0,0.010850694444444444,18.30512152777778,0)" xlink:href="#Q"/><use transform="matrix(0.010850694444444444,0,0,0.010850694444444444,30.772569444444443,0)" xlink:href="#R"/><use transform="matrix(0.010850694444444444,0,0,0.010850694444444444,43.02300347222222,0)" xlink:href="#S"/></g><path fill="#333" d="M688-137c238 0 323-102 359-325h193c-32 297-228 482-552 482-361 0-569-299-569-680 0-197 8-360 73-497 88-186 257-317 513-319 316-2 509 195 535 488h-193c-31-212-118-330-342-330-272 0-397 224-393 523v141c-3 282 115 517 376 517" id="aF"/><path fill="#333" d="M341 0H156v-1536h185V0" id="aG"/><g id="q"><use transform="matrix(0.010850694444444444,0,0,0.010850694444444444,0,0)" xlink:href="#aF"/><use transform="matrix(0.010850694444444444,0,0,0.010850694444444444,14.463975694444445,0)" xlink:href="#aG"/><use transform="matrix(0.010850694444444444,0,0,0.010850694444444444,19.856770833333332,0)" xlink:href="#aa"/><use transform="matrix(0.010850694444444444,0,0,0.010850694444444444,25.24956597222222,0)" xlink:href="#X"/><use transform="matrix(0.010850694444444444,0,0,0.010850694444444444,37.02256944444444,0)" xlink:href="#P"/><use transform="matrix(0.010850694444444444,0,0,0.010850694444444444,49.283854166666664,0)" xlink:href="#S"/></g><path fill="#333" d="M561-1102c238-4 403 126 403 351v498c0 99 13 178 38 237V0H808c-11-21-19-59-26-114C696-25 593 20 474 20c-199 0-368-130-365-320 4-251 214-359 490-356h180v-85c-1-135-86-212-229-212-115 0-232 67-233 171H131c20-205 206-316 430-320zM294-326c0 117 90 185 207 185 122 0 239-75 278-162v-222H634c-227 0-340 66-340 199" id="aH"/><g id="r"><use transform="matrix(0.010850694444444444,0,0,0.010850694444444444,0,0)" xlink:href="#aH"/><use transform="matrix(0.010850694444444444,0,0,0.010850694444444444,12.08767361111111,0)" xlink:href="#Q"/><use transform="matrix(0.010850694444444444,0,0,0.010850694444444444,24.55512152777778,0)" xlink:href="#Q"/><use transform="matrix(0.010850694444444444,0,0,0.010850694444444444,37.02256944444444,0)" xlink:href="#aG"/><use transform="matrix(0.010850694444444444,0,0,0.010850694444444444,42.41536458333333,0)" xlink:href="#aa"/><use transform="matrix(0.010850694444444444,0,0,0.010850694444444444,47.80815972222221,0)" xlink:href="#ab"/><use transform="matrix(0.010850694444444444,0,0,0.010850694444444444,59.44010416666666,0)" xlink:href="#aH"/><use transform="matrix(0.010850694444444444,0,0,0.010850694444444444,71.52777777777777,0)" xlink:href="#S"/><use transform="matrix(0.010850694444444444,0,0,0.010850694444444444,78.7868923611111,0)" xlink:href="#aa"/><use transform="matrix(0.010850694444444444,0,0,0.010850694444444444,84.17968749999999,0)" xlink:href="#ad"/><use transform="matrix(0.010850694444444444,0,0,0.010850694444444444,96.85329861111111,0)" xlink:href="#P"/></g><path fill="#333" d="M569-1476c255 0 440 146 439 390 0 143-91 314-274 512L344-151h731V0H121v-133l504-560c75-85 125-155 155-207 105-184 6-424-211-424-183 0-293 113-291 297H93c-3-270 199-449 476-449" id="aI"/><g id="s"><use transform="matrix(0.010850694444444444,0,0,0.010850694444444444,0,0)" xlink:href="#aI"/><use transform="matrix(0.010850694444444444,0,0,0.010850694444444444,12.47829861111111,0)" xlink:href="#aC"/></g><path fill="#333" d="M1098-255l208-827h185L1176 0h-150L763-820 507 0H357L43-1082h184l213 810 252-810h149" id="aJ"/><g id="t"><use transform="matrix(0.010850694444444444,0,0,0.010850694444444444,0,0)" xlink:href="#ac"/><use transform="matrix(0.010850694444444444,0,0,0.010850694444444444,12.055121527777777,0)" xlink:href="#ad"/><use transform="matrix(0.010850694444444444,0,0,0.010850694444444444,24.72873263888889,0)" xlink:href="#Y"/><use transform="matrix(0.010850694444444444,0,0,0.010850694444444444,32.43272569444444,0)" xlink:href="#aJ"/><use transform="matrix(0.010850694444444444,0,0,0.010850694444444444,49.13194444444444,0)" xlink:href="#aH"/><use transform="matrix(0.010850694444444444,0,0,0.010850694444444444,61.21961805555555,0)" xlink:href="#Y"/><use transform="matrix(0.010850694444444444,0,0,0.010850694444444444,68.53298611111111,0)" xlink:href="#af"/></g><g id="u"><use transform="matrix(0.010850694444444444,0,0,0.010850694444444444,0,0)" xlink:href="#aa"/><use transform="matrix(0.010850694444444444,0,0,0.010850694444444444,5.392795138888888,0)" xlink:href="#P"/><use transform="matrix(0.010850694444444444,0,0,0.010850694444444444,17.65407986111111,0)" xlink:href="#Q"/><use transform="matrix(0.010850694444444444,0,0,0.010850694444444444,30.121527777777775,0)" xlink:href="#R"/><use transform="matrix(0.010850694444444444,0,0,0.010850694444444444,42.37196180555556,0)" xlink:href="#S"/></g><path fill="#333" d="M132-554c0-555 187-908 715-903v157c-320-8-501 179-526 477 77-88 181-132 314-132 259 0 417 214 417 480 0 286-172 495-451 495-293 0-469-266-469-574zm737 88c0-181-95-335-265-335-133 0-252 96-286 200v68c-6 207 101 397 283 400 175 3 268-150 268-333" id="aK"/><g id="v"><use transform="matrix(0.010850694444444444,0,0,0.010850694444444444,0,0)" xlink:href="#aK"/><use transform="matrix(0.010850694444444444,0,0,0.010850694444444444,12.47829861111111,0)" xlink:href="#aC"/></g><path fill="#333" d="M1222-777c17 480-206 763-650 777H169v-1456h411c408 9 627 269 642 679zm-190 4c3-312-149-522-447-525H361v1141h202c308 0 473-209 469-531v-85" id="aL"/><g id="w"><use transform="matrix(0.010850694444444444,0,0,0.010850694444444444,0,0)" xlink:href="#aL"/><use transform="matrix(0.010850694444444444,0,0,0.010850694444444444,14.572482638888888,0)" xlink:href="#X"/><use transform="matrix(0.010850694444444444,0,0,0.010850694444444444,26.345486111111104,0)" xlink:href="#S"/><use transform="matrix(0.010850694444444444,0,0,0.010850694444444444,33.60460069444444,0)" xlink:href="#X"/><use transform="matrix(0.010850694444444444,0,0,0.010850694444444444,45.377604166666664,0)" xlink:href="#ab"/><use transform="matrix(0.010850694444444444,0,0,0.010850694444444444,57.00954861111111,0)" xlink:href="#S"/></g><g id="x"><use transform="matrix(0.010850694444444444,0,0,0.010850694444444444,0,0)" xlink:href="#aa"/><use transform="matrix(0.010850694444444444,0,0,0.010850694444444444,5.392795138888888,0)" xlink:href="#P"/><use transform="matrix(0.010850694444444444,0,0,0.010850694444444444,17.65407986111111,0)" xlink:href="#S"/><use transform="matrix(0.010850694444444444,0,0,0.010850694444444444,24.913194444444443,0)" xlink:href="#X"/><use transform="matrix(0.010850694444444444,0,0,0.010850694444444444,36.686197916666664,0)" xlink:href="#P"/><use transform="matrix(0.010850694444444444,0,0,0.010850694444444444,48.947482638888886,0)" xlink:href="#S"/></g><g id="y"><use transform="matrix(0.010850694444444444,0,0,0.010850694444444444,0,0)" xlink:href="#Y"/><use transform="matrix(0.010850694444444444,0,0,0.010850694444444444,7.313368055555555,0)" xlink:href="#X"/><use transform="matrix(0.010850694444444444,0,0,0.010850694444444444,19.08637152777778,0)" xlink:href="#W"/><use transform="matrix(0.010850694444444444,0,0,0.010850694444444444,30.54470486111111,0)" xlink:href="#Q"/><use transform="matrix(0.010850694444444444,0,0,0.010850694444444444,43.01215277777778,0)" xlink:href="#ad"/><use transform="matrix(0.010850694444444444,0,0,0.010850694444444444,55.685763888888886,0)" xlink:href="#P"/><use transform="matrix(0.010850694444444444,0,0,0.010850694444444444,67.94704861111111,0)" xlink:href="#W"/><use transform="matrix(0.010850694444444444,0,0,0.010850694444444444,79.40538194444444,0)" xlink:href="#X"/></g><path fill="#333" d="M832-402c-1-179-119-264-303-265H390v-151h139c164 0 281-91 281-250 0-171-85-256-255-256-154 0-265 99-263 250H107c-4-235 205-402 448-402 266 0 444 150 440 412-2 148-109 272-229 317 147 45 249 158 251 341 3 262-197 426-461 426C299 20 91-135 94-384h186c-2 156 116 253 276 253 176 0 277-96 276-271" id="aM"/><g id="z"><use transform="matrix(0.010850694444444444,0,0,0.010850694444444444,0,0)" xlink:href="#aM"/><use transform="matrix(0.010850694444444444,0,0,0.010850694444444444,12.47829861111111,0)" xlink:href="#aC"/></g><path fill="#333" d="M524 20C238 18 95-240 95-550c0-307 146-552 431-552 128 0 229 43 303 129l8-109h170V416H822v-516C747-20 648 20 524 20zm48-970c-208 0-292 182-292 421 0 219 92 398 290 398 110 0 194-49 252-146v-530c-59-95-142-143-250-143" id="aN"/><g id="A"><use transform="matrix(0.010850694444444444,0,0,0.010850694444444444,0,0)" xlink:href="#Y"/><use transform="matrix(0.010850694444444444,0,0,0.010850694444444444,7.313368055555555,0)" xlink:href="#X"/><use transform="matrix(0.010850694444444444,0,0,0.010850694444444444,19.08637152777778,0)" xlink:href="#aN"/><use transform="matrix(0.010850694444444444,0,0,0.010850694444444444,31.71657986111111,0)" xlink:href="#R"/><use transform="matrix(0.010850694444444444,0,0,0.010850694444444444,43.967013888888886,0)" xlink:href="#X"/><use transform="matrix(0.010850694444444444,0,0,0.010850694444444444,55.74001736111111,0)" xlink:href="#W"/><use transform="matrix(0.010850694444444444,0,0,0.010850694444444444,67.19835069444444,0)" xlink:href="#S"/></g><path fill="#333" d="M1061-1352L458 0H264l601-1304H77v-152h984v104" id="aO"/><g id="B"><use transform="matrix(0.010850694444444444,0,0,0.010850694444444444,0,0)" xlink:href="#aO"/><use transform="matrix(0.010850694444444444,0,0,0.010850694444444444,12.47829861111111,0)" xlink:href="#aC"/></g><g id="C"><use transform="matrix(0.010850694444444444,0,0,0.010850694444444444,0,0)" xlink:href="#Y"/><use transform="matrix(0.010850694444444444,0,0,0.010850694444444444,7.313368055555555,0)" xlink:href="#X"/><use transform="matrix(0.010850694444444444,0,0,0.010850694444444444,19.08637152777778,0)" xlink:href="#W"/><use transform="matrix(0.010850694444444444,0,0,0.010850694444444444,30.54470486111111,0)" xlink:href="#Q"/><use transform="matrix(0.010850694444444444,0,0,0.010850694444444444,43.01215277777778,0)" xlink:href="#ad"/><use transform="matrix(0.010850694444444444,0,0,0.010850694444444444,55.685763888888886,0)" xlink:href="#P"/><use transform="matrix(0.010850694444444444,0,0,0.010850694444444444,67.94704861111111,0)" xlink:href="#W"/><use transform="matrix(0.010850694444444444,0,0,0.010850694444444444,79.40538194444444,0)" xlink:href="#X"/></g><path fill="#333" d="M483-459l28 192 41-173 288-1016h162l281 1016 40 176 31-196 226-996h193L1420 0h-175L945-1061l-23-111-23 111L588 0H413L61-1456h192" id="aP"/><path fill="#333" d="M634-1102c292 0 422 254 422 573 0 298-143 547-420 549-137 0-242-48-317-145L310 0H140v-1536h185v573c75-93 178-139 309-139zm-44 965c207 0 281-175 281-413 0-224-79-395-283-395-122 0-210 57-263 170v468c57 113 145 170 265 170" id="aQ"/><path fill="#333" d="M589-945c-131 0-219 81-264 174V0H140v-1536h185v585c82-101 189-151 320-151 229 0 346 129 346 387V0H806v-716c-2-153-65-229-217-229" id="aR"/><path fill="#333" d="M442-501L326-380V0H141v-1536h185v929c135-169 291-317 436-475h225L566-630 1036 0H819" id="aS"/><g id="D"><use transform="matrix(0.010850694444444444,0,0,0.010850694444444444,0,0)" xlink:href="#aP"/><use transform="matrix(0.010850694444444444,0,0,0.010850694444444444,19.379340277777775,0)" xlink:href="#X"/><use transform="matrix(0.010850694444444444,0,0,0.010850694444444444,31.15234375,0)" xlink:href="#aQ"/><use transform="matrix(0.010850694444444444,0,0,0.010850694444444444,43.619791666666664,0)" xlink:href="#aR"/><use transform="matrix(0.010850694444444444,0,0,0.010850694444444444,55.859375,0)" xlink:href="#ad"/><use transform="matrix(0.010850694444444444,0,0,0.010850694444444444,68.53298611111111,0)" xlink:href="#ad"/><use transform="matrix(0.010850694444444444,0,0,0.010850694444444444,81.20659722222223,0)" xlink:href="#aS"/></g><g id="E"><use transform="matrix(0.010850694444444444,0,0,0.010850694444444444,0,0)" xlink:href="#aw"/><use transform="matrix(0.010850694444444444,0,0,0.010850694444444444,13.031684027777777,0)" xlink:href="#ak"/><use transform="matrix(0.010850694444444444,0,0,0.010850694444444444,25.596788194444443,0)" xlink:href="#as"/><use transform="matrix(0.010850694444444444,0,0,0.010850694444444444,38.03168402777777,0)" xlink:href="#av"/></g><g id="F"><use transform="matrix(0.010850694444444444,0,0,0.010850694444444444,0,0)" xlink:href="#at"/><use transform="matrix(0.010850694444444444,0,0,0.010850694444444444,11.42578125,0)" xlink:href="#ax"/><use transform="matrix(0.010850694444444444,0,0,0.010850694444444444,22.58029513888889,0)" xlink:href="#at"/><use transform="matrix(0.010850694444444444,0,0,0.010850694444444444,34.006076388888886,0)" xlink:href="#ay"/><use transform="matrix(0.010850694444444444,0,0,0.010850694444444444,41.51475694444444,0)" xlink:href="#au"/><use transform="matrix(0.010850694444444444,0,0,0.010850694444444444,53.52647569444444,0)" xlink:href="#az"/></g><path fill="#333" d="M369-598c0 393 97 738 310 900l-56 153c-200-92-361-334-433-572-84-277-87-628-5-911 71-244 234-495 438-588l56 156c-205 153-310 488-310 862" id="aT"/><path fill="#333" d="M663-1102c295 0 422 250 422 571 0 300-141 549-420 551-109 0-198-38-265-114v510H111v-1498h268l10 106c70-84 161-126 274-126zm133 550c0-175-53-315-209-315-91 0-153 35-187 104v443c35 71 98 107 189 107 138 0 207-113 207-339" id="aU"/><path fill="#333" d="M349-541c6-400-96-755-309-922l56-153c203 91 368 336 444 575 89 280 91 621 4 907-74 244-242 497-448 589L40 302c199-150 304-484 309-843" id="aV"/><g id="G"><use transform="matrix(0.010850694444444444,0,0,0.010850694444444444,0,0)" xlink:href="#aT"/><use transform="matrix(0.010850694444444444,0,0,0.010850694444444444,7.801649305555555,0)" xlink:href="#ak"/><use transform="matrix(0.010850694444444444,0,0,0.010850694444444444,20.36675347222222,0)" xlink:href="#aU"/><use transform="matrix(0.010850694444444444,0,0,0.010850694444444444,32.877604166666664,0)" xlink:href="#ay"/><use transform="matrix(0.010850694444444444,0,0,0.010850694444444444,40.38628472222222,0)" xlink:href="#ah"/><use transform="matrix(0.010850694444444444,0,0,0.010850694444444444,46.27821180555556,0)" xlink:href="#ak"/><use transform="matrix(0.010850694444444444,0,0,0.010850694444444444,58.84331597222222,0)" xlink:href="#ap"/><use transform="matrix(0.010850694444444444,0,0,0.010850694444444444,71.2890625,0)" xlink:href="#ai"/><use transform="matrix(0.010850694444444444,0,0,0.010850694444444444,83.203125,0)" xlink:href="#aj"/><use transform="matrix(0.010850694444444444,0,0,0.010850694444444444,89.09505208333333,0)" xlink:href="#aV"/></g><path fill="#333" d="M992-673H361v516h733V0H169v-1456h915v158H361v468h631v157" id="aW"/><path fill="#333" d="M503-687l240-395h216L605-547 970 0H756L506-405 256 0H41l365-547-354-535h214" id="aX"/><g id="H"><use transform="matrix(0.010850694444444444,0,0,0.010850694444444444,0,0)" xlink:href="#aW"/><use transform="matrix(0.010850694444444444,0,0,0.010850694444444444,12.630208333333332,0)" xlink:href="#aX"/><use transform="matrix(0.010850694444444444,0,0,0.010850694444444444,23.643663194444443,0)" xlink:href="#S"/><use transform="matrix(0.010850694444444444,0,0,0.010850694444444444,30.902777777777775,0)" xlink:href="#X"/><use transform="matrix(0.010850694444444444,0,0,0.010850694444444444,42.67578125,0)" xlink:href="#Y"/><use transform="matrix(0.010850694444444444,0,0,0.010850694444444444,50.1953125,0)" xlink:href="#P"/><use transform="matrix(0.010850694444444444,0,0,0.010850694444444444,62.45659722222222,0)" xlink:href="#aH"/><use transform="matrix(0.010850694444444444,0,0,0.010850694444444444,74.54427083333333,0)" xlink:href="#aG"/></g><g id="I"><use transform="matrix(0.010850694444444444,0,0,0.010850694444444444,0,0)" xlink:href="#U"/><use transform="matrix(0.010850694444444444,0,0,0.010850694444444444,14.496527777777777,0)" xlink:href="#V"/><use transform="matrix(0.010850694444444444,0,0,0.010850694444444444,28.515625,0)" xlink:href="#O"/><use transform="matrix(0.010850694444444444,0,0,0.010850694444444444,34.55946180555556,0)" xlink:href="#W"/></g><g id="J"><use transform="matrix(0.010850694444444444,0,0,0.010850694444444444,0,0)" xlink:href="#aL"/><use transform="matrix(0.010850694444444444,0,0,0.010850694444444444,14.572482638888888,0)" xlink:href="#aH"/><use transform="matrix(0.010850694444444444,0,0,0.010850694444444444,26.66015625,0)" xlink:href="#S"/><use transform="matrix(0.010850694444444444,0,0,0.010850694444444444,33.919270833333336,0)" xlink:href="#aH"/><use transform="matrix(0.010850694444444444,0,0,0.010850694444444444,46.00694444444444,0)" xlink:href="#aQ"/><use transform="matrix(0.010850694444444444,0,0,0.010850694444444444,58.47439236111111,0)" xlink:href="#aH"/><use transform="matrix(0.010850694444444444,0,0,0.010850694444444444,70.56206597222221,0)" xlink:href="#W"/><use transform="matrix(0.010850694444444444,0,0,0.010850694444444444,82.02039930555554,0)" xlink:href="#X"/></g><path fill="#333" d="M902-489h202v151H902V0H716v-338H53v-109l652-1009h197v967zm-639 0h453v-714l-22 40" id="aY"/><g id="K"><use transform="matrix(0.010850694444444444,0,0,0.010850694444444444,0,0)" xlink:href="#aY"/><use transform="matrix(0.010850694444444444,0,0,0.010850694444444444,12.47829861111111,0)" xlink:href="#aC"/></g><g id="L"><use transform="matrix(0.010850694444444444,0,0,0.010850694444444444,0,0)" xlink:href="#aP"/><use transform="matrix(0.010850694444444444,0,0,0.010850694444444444,19.379340277777775,0)" xlink:href="#X"/><use transform="matrix(0.010850694444444444,0,0,0.010850694444444444,31.15234375,0)" xlink:href="#aQ"/><use transform="matrix(0.010850694444444444,0,0,0.010850694444444444,43.619791666666664,0)" xlink:href="#aR"/><use transform="matrix(0.010850694444444444,0,0,0.010850694444444444,55.859375,0)" xlink:href="#ad"/><use transform="matrix(0.010850694444444444,0,0,0.010850694444444444,68.53298611111111,0)" xlink:href="#ad"/><use transform="matrix(0.010850694444444444,0,0,0.010850694444444444,81.20659722222223,0)" xlink:href="#aS"/></g><path fill="#333" d="M884-462c0-185-111-323-291-323-113 0-183 39-239 93l-148-38 74-726h746v171H437l-44 397c71-42 152-63 243-63 273-2 433 205 433 487 0 293-170 484-461 484-260 0-436-159-454-403h175c20 156 111 252 279 252 182 0 276-140 276-331" id="aZ"/><g id="M"><use transform="matrix(0.010850694444444444,0,0,0.010850694444444444,0,0)" xlink:href="#aZ"/><use transform="matrix(0.010850694444444444,0,0,0.010850694444444444,12.47829861111111,0)" xlink:href="#aC"/></g><g id="N"><use transform="matrix(0.010850694444444444,0,0,0.010850694444444444,0,0)" xlink:href="#aP"/><use transform="matrix(0.010850694444444444,0,0,0.010850694444444444,19.379340277777775,0)" xlink:href="#X"/><use transform="matrix(0.010850694444444444,0,0,0.010850694444444444,31.15234375,0)" xlink:href="#aQ"/><use transform="matrix(0.010850694444444444,0,0,0.010850694444444444,43.619791666666664,0)" xlink:href="#aR"/><use transform="matrix(0.010850694444444444,0,0,0.010850694444444444,55.859375,0)" xlink:href="#ad"/><use transform="matrix(0.010850694444444444,0,0,0.010850694444444444,68.53298611111111,0)" xlink:href="#ad"/><use transform="matrix(0.010850694444444444,0,0,0.010850694444444444,81.20659722222223,0)" xlink:href="#aS"/></g></defs></g></svg>